<?xml version="1.0" encoding="UTF-8" standalone="no"?>
<svg
   inkscape:export-ydpi="36.000004"
   inkscape:export-xdpi="36.000004"
   inkscape:export-filename="V:\00-APLUS SERVICES\Communication\icon-lyræ-384.png"
   sodipodi:docname="lyrae-simple.svg"
   inkscape:version="1.1.1 (3bf5ae0d25, 2021-09-20)"
   id="svg8"
   version="1.1"
   viewBox="0 0 270.93333 270.93334"
   height="1024"
   width="1024"
   xmlns:inkscape="http://www.inkscape.org/namespaces/inkscape"
   xmlns:sodipodi="http://sodipodi.sourceforge.net/DTD/sodipodi-0.dtd"
   xmlns="http://www.w3.org/2000/svg"
   xmlns:svg="http://www.w3.org/2000/svg"
   xmlns:rdf="http://www.w3.org/1999/02/22-rdf-syntax-ns#"
   xmlns:cc="http://creativecommons.org/ns#"
   xmlns:dc="http://purl.org/dc/elements/1.1/">
  <defs
     id="defs2" />
  <sodipodi:namedview
     inkscape:document-rotation="0"
     inkscape:pagecheckerboard="true"
     inkscape:window-maximized="1"
     inkscape:window-y="-8"
     inkscape:window-x="1912"
     inkscape:window-height="1057"
     inkscape:window-width="1796"
     showguides="false"
     units="px"
     showgrid="false"
     inkscape:current-layer="flowRoot815"
     inkscape:document-units="mm"
     inkscape:cy="397.39617"
     inkscape:cx="290.29649"
     inkscape:zoom="0.17740483"
     inkscape:pageshadow="2"
     inkscape:pageopacity="0"
     borderopacity="1.0"
     bordercolor="#666666"
     pagecolor="#ffffff"
     id="base">
    <inkscape:grid
       id="grid869"
       type="xygrid" />
  </sodipodi:namedview>
  <metadata
     id="metadata5">
    <rdf:RDF>
      <cc:Work
         rdf:about="">
        <dc:format>image/svg+xml</dc:format>
        <dc:type
           rdf:resource="http://purl.org/dc/dcmitype/StillImage" />
      </cc:Work>
    </rdf:RDF>
  </metadata>
  <g
     transform="translate(0,-32.41665)"
     id="layer1"
     inkscape:groupmode="layer"
     inkscape:label="Calque 1">
    <g
       id="flowRoot815"
       style="font-style:normal;font-weight:normal;font-size:40px;line-height:1.25;font-family:sans-serif;letter-spacing:0px;word-spacing:0px;fill:#f58d0e;fill-opacity:1;stroke:none"
       transform="matrix(0.26458333,0,0,0.26458333,-49.136905,-73.416683)"
       aria-label="æ">
      <path
         inkscape:export-ydpi="96.000008"
         inkscape:export-xdpi="96.000008"
         sodipodi:nodetypes="cccsccc"
         d="M 459.25188,400 C 307.71226,400 185.71429,527.58357 185.71429,679.88069 V 1425 l 745.15427,-0.9823 C 1082.408,1423.8179 1210.7143,1300 1209.2228,1146.3686 1210.7143,905.00001 1210.7143,645.00001 1210.7143,400 Z"
         style="opacity:1;fill:#e84c3d;fill-opacity:1;stroke-width:1.01109;stroke-miterlimit:4;stroke-dasharray:none"
         id="rect861" />
      <g
         style="fill:#ffffff;fill-opacity:1"
         transform="matrix(0.64204223,0,0,0.65736208,247.02862,301.41939)"
         id="g4561">
        <path
           d="m 695.07813,698.04698 c 0.59618,245.51844 4.41203,282.1207 -23.62411,425.06552 -28.04163,48.8581 -62.80556,85.5017 -104.2918,109.9307 -41.48625,24.4291 -89.6948,36.6436 -144.62565,36.6436 -72.60092,0 -129.06831,-18.9325 -169.40216,-56.7975 -40.33384,-38.2722 -60.50076,-91.609 -60.50076,-160.0103 0,-76.95151 24.20031,-134.97052 72.60092,-174.05701 48.78474,-39.08648 121.38567,-58.62973 217.80277,-58.62973 h 148.65903 v -10.99308 c 0,-51.70817 -16.13354,-91.60896 -48.40062,-119.70238 -31.88294,-28.50056 -76.82637,-42.75084 -134.83028,-42.75084 -36.87665,0 -72.79299,4.68223 -107.74899,14.0467 -34.95599,9.36447 -68.56753,23.41118 -100.83461,42.14012 V 599.1093 c 38.79731,-15.87889 76.44224,-27.68627 112.93477,-35.42213 36.49253,-8.14303 72.02472,-12.21453 106.59659,-12.21453 54.54672,0 102.17908,9.77162 142.89705,29.31486 66.38896,36.2946 72.02473,81.4302 92.76785,117.25948 z M 526.25217,908.13685 c -85.66141,0 -145.00978,10.38235 -178.04512,31.14705 -33.03534,20.76469 -49.553,56.18684 -49.553,106.2664 0,39.9007 12.29222,71.6585 36.87665,95.2733 24.96857,23.2076 58.77217,34.8114 101.41081,34.8114 58.77218,0 105.82833,-21.9862 141.16846,-65.9585 35.72427,-44.3795 53.5864,-103.2127 53.5864,-176.49986 v -25.03979 z"
           style="font-size:1066.67px;fill:#ffffff;fill-opacity:1;stroke-width:1.13897"
           id="path823"
           inkscape:connector-curvature="0"
           sodipodi:nodetypes="ccsscscscscsscccsccssscscscs" />
        <path
           d="m 671.45402,1123.1125 c -0.59619,-245.51842 -4.41196,-282.1205 23.62411,-425.06552 28.04172,-48.85815 62.80564,-85.50174 104.29189,-109.93076 41.48621,-24.42902 89.69478,-36.64358 144.62555,-36.64358 72.60093,0 129.06833,18.93248 169.40223,56.79755 40.3338,38.27221 60.5007,91.60897 60.5007,160.01041 0,76.9515 -24.2004,134.97055 -72.6009,174.057 -48.7848,39.08657 -121.38568,58.6297 -217.8028,58.6297 H 734.83578 v 10.9931 c 0,51.7082 16.13361,91.6089 48.40062,119.7024 31.88298,28.5005 76.82641,42.7508 134.83027,42.7508 36.87673,0 72.79298,-4.6821 107.74903,-14.0467 34.956,-9.3645 68.5675,-23.4111 100.8346,-42.1401 v 103.8235 c -38.7973,15.8789 -76.4422,27.6862 -112.9347,35.4221 -36.49254,8.1431 -72.02479,12.2145 -106.59665,12.2145 -54.54667,0 -102.17904,-9.7715 -142.89708,-29.3148 -71.13017,-42.9952 -72.02473,-81.4304 -92.76785,-117.2596 z M 840.27996,913.02274 c 85.66146,0 145.0098,-10.38228 178.04514,-31.14705 33.0354,-20.76466 49.553,-56.18676 49.553,-106.26639 0,-39.90081 -12.2922,-71.65866 -36.8766,-95.27343 -24.9686,-23.20764 -58.77216,-34.8114 -101.41084,-34.8114 -58.77218,0 -105.82831,21.98615 -141.16848,65.95845 -35.72419,44.37966 -53.5864,103.21294 -53.5864,176.50011 v 25.03971 z"
           style="font-style:normal;font-weight:normal;font-size:1066.67px;line-height:1.25;font-family:sans-serif;letter-spacing:0px;word-spacing:0px;fill:#ffffff;fill-opacity:1;stroke:none;stroke-width:1.13897"
           id="path823-1"
           inkscape:connector-curvature="0"
           sodipodi:nodetypes="ccsscscscscsscccsccssscscscs" />
      </g>
      <flowRoot
         style="font-style:normal;font-weight:normal;font-size:40px;line-height:1.25;font-family:sans-serif;letter-spacing:0px;word-spacing:0px;fill:#000000;fill-opacity:1;stroke:none"
         id="flowRoot4563"
         xml:space="preserve"><flowRegion
           id="flowRegion4565"><rect
             y="-1172.931"
             x="-1780.3427"
             height="1780.3427"
             width="2026.8517"
             id="rect4567" /></flowRegion><flowPara
           id="flowPara4569" /></flowRoot>
    </g>
  </g>
</svg>
