<?xml version="1.0" encoding="UTF-8" standalone="no"?>
<svg
   inkscape:export-ydpi="36.000004"
   inkscape:export-xdpi="36.000004"
   inkscape:export-filename="V:\00-APLUS SERVICES\Communication\icon-lyræ-384.png"
   sodipodi:docname="lyrae-logo.svg"
   inkscape:version="1.1.1 (3bf5ae0d25, 2021-09-20)"
   id="svg8"
   version="1.1"
   viewBox="0 0 270.93333 135.46667"
   height="512"
   width="1024"
   xmlns:inkscape="http://www.inkscape.org/namespaces/inkscape"
   xmlns:sodipodi="http://sodipodi.sourceforge.net/DTD/sodipodi-0.dtd"
   xmlns="http://www.w3.org/2000/svg"
   xmlns:svg="http://www.w3.org/2000/svg"
   xmlns:rdf="http://www.w3.org/1999/02/22-rdf-syntax-ns#"
   xmlns:cc="http://creativecommons.org/ns#"
   xmlns:dc="http://purl.org/dc/elements/1.1/">
  <defs
     id="defs2">
    <rect
       x="-868.07104"
       y="-1178.0964"
       width="2074.3516"
       height="749.69775"
       id="rect3818" />
  </defs>
  <sodipodi:namedview
     inkscape:document-rotation="0"
     inkscape:pagecheckerboard="true"
     inkscape:window-maximized="1"
     inkscape:window-y="-8"
     inkscape:window-x="1912"
     inkscape:window-height="1057"
     inkscape:window-width="1796"
     showguides="false"
     units="px"
     showgrid="false"
     inkscape:current-layer="g4561"
     inkscape:document-units="mm"
     inkscape:cy="266.28848"
     inkscape:cx="709.12001"
     inkscape:zoom="1.5265399"
     inkscape:pageshadow="2"
     inkscape:pageopacity="0"
     borderopacity="1.0"
     bordercolor="#666666"
     pagecolor="#ffffff"
     id="base"
     height="512px">
    <inkscape:grid
       id="grid869"
       type="xygrid" />
  </sodipodi:namedview>
  <metadata
     id="metadata5">
    <rdf:RDF>
      <cc:Work
         rdf:about="">
        <dc:format>image/svg+xml</dc:format>
        <dc:type
           rdf:resource="http://purl.org/dc/dcmitype/StillImage" />
      </cc:Work>
    </rdf:RDF>
  </metadata>
  <g
     transform="translate(0,-32.41665)"
     id="layer1"
     inkscape:groupmode="layer"
     inkscape:label="Calque 1">
    <g
       id="flowRoot815"
       style="font-style:normal;font-weight:normal;font-size:40px;line-height:1.25;font-family:sans-serif;letter-spacing:0px;word-spacing:0px;fill:#f58d0e;fill-opacity:1;stroke:none"
       transform="matrix(0.26458333,0,0,0.26458333,-49.136905,-73.416683)"
       aria-label="æ">
      <flowRoot
         style="font-style:normal;font-weight:normal;font-size:40px;line-height:1.25;font-family:sans-serif;letter-spacing:0px;word-spacing:0px;fill:#000000;fill-opacity:1;stroke:none"
         id="flowRoot4563"
         xml:space="preserve"><flowRegion
           id="flowRegion4565"><rect
             y="-1172.931"
             x="-1780.3427"
             height="1780.3427"
             width="2026.8517"
             id="rect4567" /></flowRegion><flowPara
           id="flowPara4569" /></flowRoot>
      <g
         id="g3576"
         transform="matrix(1.2361294,0,0,1.2361294,366.24476,-537.07023)">
        <path
           inkscape:export-ydpi="96.000008"
           inkscape:export-xdpi="96.000008"
           sodipodi:nodetypes="cccsccc"
           d="m 423.76318,815.95428 c -45.07684,0 -81.36624,37.95088 -81.36624,83.25305 v 221.64257 l 221.65292,-0.2922 c 45.07678,-0.06 83.24266,-36.8902 82.79901,-82.5893 0.44365,-71.79727 0.44365,-149.13664 0.44365,-222.01412 z"
           style="opacity:1;fill:#808080;fill-opacity:1;stroke-width:0.300758;stroke-miterlimit:4;stroke-dasharray:none"
           id="rect861" />
        <g
           style="fill:#000000;fill-opacity:1"
           transform="matrix(0.27483804,0,0,0.28139598,308.67402,708.90185)"
           id="g4561">
          <path
             d="m 677.41734,703.79672 c 0.59618,245.51844 4.41203,282.1207 -23.62411,425.06548 -28.04163,48.8581 -62.80556,85.5017 -104.2918,109.9307 -41.48625,24.4291 -89.6948,36.6436 -144.62565,36.6436 -72.60092,0 -129.06831,-18.9325 -169.40216,-56.7975 -40.33384,-38.2722 -60.50076,-91.609 -60.50076,-160.0103 0,-76.95147 24.20031,-134.97048 72.60092,-174.05697 C 296.35852,845.48525 368.95945,825.942 465.37655,825.942 h 148.65903 v -10.99308 c 0,-51.70817 -16.13354,-91.60896 -48.40062,-119.70238 -31.88294,-28.50056 -76.82637,-42.75084 -134.83028,-42.75084 -36.87665,0 -72.79299,4.68223 -107.74899,14.0467 -34.95599,9.36447 -68.56753,23.41118 -100.83461,42.14012 V 604.85904 c 38.79731,-15.87889 76.44224,-27.68627 112.93477,-35.42213 36.49253,-8.14303 72.02472,-12.21453 106.59659,-12.21453 54.54672,0 102.17908,9.77162 142.89705,29.31486 66.38896,36.2946 72.02473,81.4302 92.76785,117.25948 z M 508.59138,913.88659 c -85.66141,0 -145.00978,10.38235 -178.04512,31.14705 -33.03534,20.76469 -49.553,56.18686 -49.553,106.26636 0,39.9007 12.29222,71.6585 36.87665,95.2733 24.96857,23.2076 58.77217,34.8114 101.41081,34.8114 58.77218,0 105.82833,-21.9862 141.16846,-65.9585 35.72427,-44.3795 53.5864,-103.2127 53.5864,-176.49982 v -25.03979 z"
             style="font-size:1066.67px;fill:#000000;fill-opacity:1;stroke-width:4.44179;stroke-miterlimit:4;stroke-dasharray:none"
             id="path823"
             inkscape:connector-curvature="0"
             sodipodi:nodetypes="ccsscscscscsscccsccssscscscs" />
          <path
             d="m 653.79323,1128.8622 c -0.59619,-245.51838 -4.41196,-282.12046 23.62411,-425.06548 28.04172,-48.85815 62.80564,-85.50174 104.29189,-109.93076 41.48621,-24.42902 89.69478,-36.64358 144.62555,-36.64358 72.60099,0 129.06842,18.93248 169.40232,56.79755 40.3338,38.27221 60.5007,91.60897 60.5007,160.01041 0,76.9515 -24.2004,134.97055 -72.6009,174.057 -48.7848,39.08657 -121.38577,58.62966 -217.80289,58.62966 H 717.17499 v 10.9931 c 0,51.7082 16.13361,91.6089 48.40062,119.7024 31.88298,28.5005 76.82641,42.7508 134.83027,42.7508 36.87673,0 72.79298,-4.6821 107.74912,-14.0467 34.956,-9.3645 68.5675,-23.4111 100.8346,-42.1401 V 1227.8 c -38.7973,15.8789 -76.4422,27.6862 -112.93473,35.4221 -36.4926,8.1431 -72.02485,12.2145 -106.59671,12.2145 -54.54667,0 -102.17904,-9.7715 -142.89708,-29.3148 -71.13017,-42.9952 -72.02473,-81.4304 -92.76785,-117.2596 z M 822.61917,918.77248 c 85.66146,0 145.0098,-10.38228 178.04523,-31.14705 33.0354,-20.76466 49.553,-56.18676 49.553,-106.26639 0,-39.90081 -12.2922,-71.65866 -36.8766,-95.27343 -24.96866,-23.20764 -58.77225,-34.8114 -101.41093,-34.8114 -58.77218,0 -105.82831,21.98615 -141.16848,65.95845 -35.72419,44.37966 -53.5864,103.21294 -53.5864,176.50011 v 25.03971 z"
             style="font-style:normal;font-weight:normal;font-size:1066.67px;line-height:1.25;font-family:sans-serif;letter-spacing:0px;word-spacing:0px;fill:#000000;fill-opacity:1;stroke:none;stroke-width:4.44179;stroke-miterlimit:4;stroke-dasharray:none"
             id="path823-1"
             inkscape:connector-curvature="0"
             sodipodi:nodetypes="ccsscscscscsscccsccssscscscs" />
        </g>
        <text
           xml:space="preserve"
           transform="matrix(0.74116103,0,0,0.74116103,521.01395,1669.8902)"
           id="text3816"
           style="font-style:normal;font-variant:normal;font-weight:bold;font-stretch:normal;font-size:400px;line-height:1.25;font-family:Free;-inkscape-font-specification:'Free, Bold';font-variant-ligatures:normal;font-variant-caps:normal;font-variant-numeric:normal;font-variant-east-asian:normal;white-space:pre;shape-inside:url(#rect3818);fill:#ffffff;fill-opacity:1;stroke:none"><tspan
             x="-868.07031"
             y="-815.90058"
             id="tspan7931">LYR</tspan></text>
      </g>
    </g>
  </g>
</svg>
